<?xml version="1.0" encoding="utf-8"?>
<!-- Generator: Adobe Illustrator 18.1.0, SVG Export Plug-In . SVG Version: 6.00 Build 0)  -->
<!DOCTYPE svg PUBLIC "-//W3C//DTD SVG 1.1//EN" "http://www.w3.org/Graphics/SVG/1.1/DTD/svg11.dtd">
<svg version="1.1" id="Layer_1" xmlns="http://www.w3.org/2000/svg" xmlns:xlink="http://www.w3.org/1999/xlink" x="0px" y="0px"
	 width="73px" height="51px" viewBox="0 0 73 51" enable-background="new 0 0 73 51" xml:space="preserve">
<g>
	<path fill="#0A83F6" d="M63.5,22.6c0-0.3,0-0.6,0-1C63.6,9.7,53.9,0,41.9,0c-8.4,0-15.7,4.8-19.3,11.8C21,10.7,19,10,16.8,10
		c-5.7,0-10.3,4.6-10.3,10.3c0,0.9,0.1,1.8,0.4,2.7C2.8,25.6,0,30.2,0,35.5c0,8,6.3,14.4,14.1,14.8v0h0.7c0,0,0,0,0.1,0
		c0.1,0,0.1,0,0.1,0h42c0.2,0,0.5,0,0.8,0c8,0,14.5-6.5,14.5-14.5C72.1,30,68.6,24.9,63.5,22.6z M57.6,45.4c-0.1,0-0.1,0-0.2,0
		l-0.3,0l-0.1,0h-0.1h-42h-0.1h-0.1v0c-5.4-0.1-9.7-4.5-9.7-9.9c0-3.5,1.8-6.7,4.9-8.5l3-1.8l-1-3.4c-0.2-0.5-0.2-1-0.2-1.6
		c0-2.9,2.4-5.3,5.3-5.3c1.2,0,2.3,0.4,3.2,1.1l4.4,3.4l2.4-5c2.8-5.8,8.7-9.5,15.1-9.5c9.2,0,16.7,7.5,16.7,16.7c0,0.2,0,0.4,0,0.6
		l0,0.4l-0.2,3.2l2.9,1.2c3.6,1.5,5.9,5,5.9,8.8C67.2,41.1,62.9,45.4,57.6,45.4z"/>
</g>
</svg>
