<?xml version="1.0" encoding="UTF-8" standalone="no"?>
<svg width="1408px" height="384px" viewBox="0 0 1408 384" version="1.1" xmlns="http://www.w3.org/2000/svg" xmlns:xlink="http://www.w3.org/1999/xlink">
    <!-- Generator: Sketch 40 (33762) - http://www.bohemiancoding.com/sketch -->
    <title>Shape</title>
    <desc>Created with Sketch.</desc>
    <defs></defs>
    <g id="Page-1" stroke="none" stroke-width="1" fill="none" fill-rule="evenodd">
        <path d="M1408,96 L1408,288 C1408,314.666667 1398.66667,337.333333 1380,356 C1361.33333,374.666667 1338.66667,384 1312,384 L96,384 C69.3333333,384 46.6666667,374.666667 28,356 C9.33333333,337.333333 0,314.666667 0,288 L0,96 C0,69.3333333 9.33333333,46.6666667 28,28 C46.6666667,9.33333333 69.3333333,0 96,0 L1312,0 C1338.66667,0 1361.33333,9.33333333 1380,28 C1398.66667,46.6666667 1408,69.3333333 1408,96 L1408,96 Z" id="Shape" fill="#FFFFFF"></path>
    </g>
</svg>