<?xml version="1.0" encoding="UTF-8" standalone="no"?>
<svg width="1536px" height="1536px" viewBox="0 0 1536 1536" version="1.1" xmlns="http://www.w3.org/2000/svg" xmlns:xlink="http://www.w3.org/1999/xlink">
    <!-- Generator: Sketch 40 (33762) - http://www.bohemiancoding.com/sketch -->
    <title>reassign_white</title>
    <desc>Created with Sketch.</desc>
    <defs></defs>
    <g id="Page-1" stroke="none" stroke-width="1" fill="none" fill-rule="evenodd">
        <g id="reassign_white" fill="#FFFFFF">
            <g id="Page-1">
                <path d="M1511,928 C1511,931.333333 1510.66667,933.666667 1510,935 C1467.33333,1113.66667 1378,1258.5 1242,1369.5 C1106,1480.5 946.666667,1536 764,1536 C666.666667,1536 572.5,1517.66667 481.5,1481 C390.5,1444.33333 309.333333,1392 238,1324 L109,1453 C96.3333333,1465.66667 81.3333333,1472 64,1472 C46.6666667,1472 31.6666667,1465.66667 19,1453 C6.33333333,1440.33333 0,1425.33333 0,1408 L0,960 C0,942.666667 6.33333333,927.666667 19,915 C31.6666667,902.333333 46.6666667,896 64,896 L512,896 C529.333333,896 544.333333,902.333333 557,915 C569.666667,927.666667 576,942.666667 576,960 C576,977.333333 569.666667,992.333333 557,1005 L420,1142 C467.333333,1186 521,1220 581,1244 C641,1268 703.333333,1280 768,1280 C857.333333,1280 940.666667,1258.33333 1018,1215 C1095.33333,1171.66667 1157.33333,1112 1204,1036 C1211.33333,1024.66667 1229,985.666667 1257,919 C1262.33333,903.666667 1272.33333,896 1287,896 L1479,896 C1487.66667,896 1495.16667,899.166667 1501.5,905.5 C1507.83333,911.833333 1511,919.333333 1511,928 L1511,928 L1511,928 Z M1536,128 L1536,576 C1536,593.333333 1529.66667,608.333333 1517,621 C1504.33333,633.666667 1489.33333,640 1472,640 L1024,640 C1006.66667,640 991.666667,633.666667 979,621 C966.333333,608.333333 960,593.333333 960,576 C960,558.666667 966.333333,543.666667 979,531 L1117,393 C1018.33333,301.666667 902,256 768,256 C678.666667,256 595.333333,277.666667 518,321 C440.666667,364.333333 378.666667,424 332,500 C324.666667,511.333333 307,550.333333 279,617 C273.666667,632.333333 263.666667,640 249,640 L50,640 C41.3333333,640 33.8333333,636.833333 27.5,630.5 C21.1666667,624.166667 18,616.666667 18,608 L18,601 C61.3333333,422.333333 151.333333,277.5 288,166.5 C424.666667,55.5 584.666667,0 768,0 C865.333333,0 960,18.5 1052,55.5 C1144,92.5 1225.66667,144.666667 1297,212 L1427,83 C1439.66667,70.3333333 1454.66667,64 1472,64 C1489.33333,64 1504.33333,70.3333333 1517,83 C1529.66667,95.6666667 1536,110.666667 1536,128 L1536,128 L1536,128 Z" id="Shape"></path>
            </g>
        </g>
    </g>
</svg>